<mxfile host="app.diagrams.net" modified="2021-05-30T21:20:03.186Z" agent="5.0 (Windows NT 10.0; Win64; x64) AppleWebKit/537.36 (KHTML, like Gecko) Chrome/90.0.4430.212 Safari/537.36" etag="rCJBrvMmIFSA3Fpc3Ct_" version="14.7.2" type="github">
  <diagram id="oY0LnntBuw9bPdtWeNoJ" name="Page-1">
    <mxGraphModel dx="1038" dy="580" grid="1" gridSize="10" guides="1" tooltips="1" connect="1" arrows="1" fold="1" page="1" pageScale="1" pageWidth="1169" pageHeight="827" math="0" shadow="0">
      <root>
        <mxCell id="0" />
        <mxCell id="1" parent="0" />
        <mxCell id="GokWcmbiQJ_OEAtWaZ8g-3" value="" style="edgeStyle=orthogonalEdgeStyle;rounded=0;orthogonalLoop=1;jettySize=auto;html=1;" edge="1" parent="1" source="GokWcmbiQJ_OEAtWaZ8g-1" target="GokWcmbiQJ_OEAtWaZ8g-2">
          <mxGeometry relative="1" as="geometry" />
        </mxCell>
        <mxCell id="GokWcmbiQJ_OEAtWaZ8g-1" value="events.js" style="rounded=0;whiteSpace=wrap;html=1;" vertex="1" parent="1">
          <mxGeometry x="750" y="80" width="120" height="60" as="geometry" />
        </mxCell>
        <mxCell id="GokWcmbiQJ_OEAtWaZ8g-2" value="caps.js" style="rounded=0;whiteSpace=wrap;html=1;" vertex="1" parent="1">
          <mxGeometry x="320" y="80" width="120" height="60" as="geometry" />
        </mxCell>
        <mxCell id="GokWcmbiQJ_OEAtWaZ8g-4" value="vender.js" style="rounded=0;whiteSpace=wrap;html=1;" vertex="1" parent="1">
          <mxGeometry x="585" y="280" width="120" height="60" as="geometry" />
        </mxCell>
        <mxCell id="GokWcmbiQJ_OEAtWaZ8g-5" value="driver.js" style="rounded=0;whiteSpace=wrap;html=1;" vertex="1" parent="1">
          <mxGeometry x="280" y="280" width="120" height="60" as="geometry" />
        </mxCell>
        <mxCell id="GokWcmbiQJ_OEAtWaZ8g-8" value="" style="endArrow=classic;startArrow=classic;html=1;entryX=0.5;entryY=1;entryDx=0;entryDy=0;exitX=0.5;exitY=0;exitDx=0;exitDy=0;" edge="1" parent="1" source="GokWcmbiQJ_OEAtWaZ8g-4" target="GokWcmbiQJ_OEAtWaZ8g-2">
          <mxGeometry width="50" height="50" relative="1" as="geometry">
            <mxPoint x="500" y="320" as="sourcePoint" />
            <mxPoint x="550" y="270" as="targetPoint" />
          </mxGeometry>
        </mxCell>
        <mxCell id="GokWcmbiQJ_OEAtWaZ8g-9" value="" style="endArrow=classic;startArrow=classic;html=1;entryX=0.5;entryY=1;entryDx=0;entryDy=0;exitX=0.5;exitY=0;exitDx=0;exitDy=0;" edge="1" parent="1" source="GokWcmbiQJ_OEAtWaZ8g-5" target="GokWcmbiQJ_OEAtWaZ8g-2">
          <mxGeometry width="50" height="50" relative="1" as="geometry">
            <mxPoint x="500" y="320" as="sourcePoint" />
            <mxPoint x="550" y="270" as="targetPoint" />
          </mxGeometry>
        </mxCell>
      </root>
    </mxGraphModel>
  </diagram>
</mxfile>
